<?xml version="1.0" encoding="utf-8"?>
<!-- Generator: Adobe Illustrator 16.0.0, SVG Export Plug-In . SVG Version: 6.00 Build 0)  -->
<!DOCTYPE svg PUBLIC "-//W3C//DTD SVG 1.1//EN" "http://www.w3.org/Graphics/SVG/1.1/DTD/svg11.dtd">
<svg version="1.1" xmlns="http://www.w3.org/2000/svg" xmlns:xlink="http://www.w3.org/1999/xlink" x="0px" y="0px" width="160px"
	 height="50px" viewBox="0 0 160 50" enable-background="new 0 0 160 50" xml:space="preserve">
<g id="Layer_2" display="none">
	<rect display="inline" fill="#606060" width="160" height="50"/>
</g>
<g id="Layer_1">
	<g>
		<path fill="#FFFFFF" d="M154.767,25.858c0.468-0.264,0.449-0.74,0.449-0.74s-0.005-0.621-0.005-0.826
			c0-0.203-0.2-0.32-0.515-0.153c-0.272,0.147-24.956,13.81-31.254,17.296c0-0.144,0-0.267,0-0.353c0-0.849,0.153-1.212,0.543-1.428
			c0.392-0.215,29.497-16.33,29.497-16.33c2.356-1.359,2.356-3.586,0-4.948L125.64,2.301c-2.357-1.36-4.285-0.246-4.285,2.475
			v32.146c0,0.109,0.008,0.212,0.015,0.316v7.958c0,2.273,1.269,3.804,3.159,3.804c0.727,0,1.488-0.227,2.262-0.675
			c0,0,25.648-14.141,26.729-14.673c1.938-0.951,1.684-3.373,1.684-3.373l-29.449,16.252c-0.454,0.262-0.865,0.396-1.225,0.396
			c-0.489,0-0.762-0.302-0.911-0.669c5.09-2.813,30.728-16.993,31.149-17.229c0.468-0.264,0.449-0.742,0.449-0.742
			s-0.005-0.621-0.005-0.824s-0.2-0.323-0.515-0.152c-0.272,0.146-24.956,13.808-31.254,17.294c0-0.376,0-0.891,0-1.414
			C128.079,40.623,154.34,26.099,154.767,25.858z"/>
	</g>
	<g>
		<path fill="#FFFFFF" d="M7.599,10.945c0,0,1.051,0.96,2.219,0.96c0.468,0,0.973-0.182,0.973-0.739c0-1.104-4.179-1.065-4.179-3.92
			c0-1.713,1.44-2.842,3.284-2.842c1.999,0,2.984,1.051,2.984,1.051l-0.96,1.856c0,0-0.935-0.817-2.05-0.817
			c-0.468,0-0.987,0.208-0.987,0.727c0,1.168,4.179,0.96,4.179,3.893c0,1.544-1.181,2.881-3.271,2.881
			c-2.18,0-3.386-1.324-3.386-1.324L7.599,10.945z M7.43,2.016h1.752l0.609,1.064h0.026l0.61-1.064h1.752l-1.285,1.947H8.714
			L7.43,2.016z"/>
		<path fill="#FFFFFF" d="M14.358,4.56h2.245v4.802h0.637l1.323-2.207h2.439l-1.96,3.037v0.026l2.233,3.621h-2.557l-1.416-2.595
			h-0.701v2.595h-2.245V4.56z"/>
		<path fill="#FFFFFF" d="M25.323,7c2.116,0,3.803,1.414,3.803,3.517c0,2.089-1.688,3.478-3.791,3.478
			c-2.103,0-3.79-1.388-3.79-3.478C21.546,8.414,23.233,7,25.323,7z M25.336,12.126c0.819,0,1.519-0.61,1.519-1.609
			c0-1.013-0.7-1.648-1.519-1.648c-0.817,0-1.519,0.636-1.519,1.648C23.817,11.516,24.519,12.126,25.336,12.126z"/>
		<path fill="#FFFFFF" d="M30.202,4.56h2.245v6.515c0,0.636,0.116,0.856,0.623,0.856c0.142,0,0.272-0.013,0.272-0.013v1.947
			c0,0-0.311,0.039-0.674,0.039c-1.194,0-2.466-0.286-2.466-2.531V4.56z"/>
		<path fill="#FFFFFF" d="M37.858,9.673h0.091V9.556c0-0.558-0.428-0.739-0.986-0.739c-0.844,0-1.805,0.636-1.805,0.636L34.38,7.87
			c0,0,1.155-0.87,2.803-0.87c1.882,0,3.011,1.025,3.011,2.725v4.114h-2.05v-0.402c0-0.22,0.026-0.415,0.026-0.415h-0.026
			c0,0-0.494,0.973-1.895,0.973c-1.246,0-2.272-0.83-2.272-2.154C33.977,9.894,36.819,9.673,37.858,9.673z M36.872,12.281
			c0.584,0,1.104-0.635,1.104-1.181v-0.143h-0.208c-0.714,0-1.532,0.208-1.532,0.766C36.235,12.036,36.43,12.281,36.872,12.281z"/>
		<path fill="#FFFFFF" d="M44.332,12.723l2.453-3.076c0.338-0.416,0.584-0.61,0.584-0.61V9.011c0,0-0.168,0.026-0.584,0.026h-2.349
			V7.155h5.969v1.129l-2.439,3.076c-0.325,0.403-0.597,0.61-0.597,0.61v0.026c0,0,0.169-0.04,0.597-0.04h2.505v1.882h-6.138V12.723z
			"/>
		<path fill="#FFFFFF" d="M55.141,9.673h0.09V9.556c0-0.558-0.427-0.739-0.985-0.739c-0.844,0-1.805,0.636-1.805,0.636L51.663,7.87
			c0,0,1.155-0.87,2.803-0.87c1.882,0,3.011,1.025,3.011,2.725v4.114h-2.05v-0.402c0-0.22,0.026-0.415,0.026-0.415h-0.026
			c0,0-0.493,0.973-1.895,0.973c-1.246,0-2.271-0.83-2.271-2.154C51.261,9.894,54.103,9.673,55.141,9.673z M54.154,12.281
			c0.584,0,1.104-0.635,1.104-1.181v-0.143h-0.207c-0.714,0-1.533,0.208-1.533,0.766C53.519,12.036,53.713,12.281,54.154,12.281z"/>
		<path fill="#FFFFFF" d="M64.717,14.696c0.805,0,1.545-0.299,1.545-1.285V13.19c0-0.078,0.013-0.246,0.013-0.246h-0.026
			c-0.39,0.467-0.896,0.701-1.674,0.701c-2.012,0-3.011-1.648-3.011-3.362c0-1.7,0.973-3.283,2.997-3.283
			c1.22,0,1.817,0.649,1.817,0.649h0.039c0,0-0.012-0.078-0.012-0.156V7.155h2.102v6.074c0,2.44-1.946,3.336-3.777,3.336
			c-0.896,0-1.882-0.26-2.53-0.597l0.635-1.7C62.835,14.268,63.667,14.696,64.717,14.696z M66.314,10.31
			c0-1.182-0.624-1.441-1.298-1.441c-0.792,0-1.194,0.571-1.194,1.337c0,0.83,0.389,1.57,1.284,1.57
			C65.69,11.776,66.314,11.477,66.314,10.31z"/>
		<path fill="#FFFFFF" d="M70.167,7.155h2.154v1.129c0,0.221-0.026,0.415-0.026,0.415h0.026c0.285-0.908,1.129-1.661,2.128-1.661
			c0.13,0,0.26,0.026,0.26,0.026v2.206c0,0-0.182-0.039-0.454-0.039c-0.533,0-1.402,0.168-1.726,1.168
			c-0.079,0.247-0.118,0.545-0.118,0.908v2.531h-2.245V7.155z"/>
		<path fill="#FFFFFF" d="M79.119,9.673h0.092V9.556c0-0.558-0.428-0.739-0.986-0.739c-0.843,0-1.805,0.636-1.805,0.636L75.642,7.87
			c0,0,1.155-0.87,2.804-0.87c1.882,0,3.011,1.025,3.011,2.725v4.114h-2.051v-0.402c0-0.22,0.025-0.415,0.025-0.415h-0.025
			c0,0-0.493,0.973-1.895,0.973c-1.245,0-2.271-0.83-2.271-2.154C75.239,9.894,78.081,9.673,79.119,9.673z M78.134,12.281
			c0.583,0,1.103-0.635,1.103-1.181v-0.143h-0.207c-0.713,0-1.532,0.208-1.532,0.766C77.497,12.036,77.692,12.281,78.134,12.281z"/>
		<path fill="#FFFFFF" d="M87.957,8.908h-2.323v4.931h-2.245V8.908H82.57V7.155h0.818V7c0-2.194,1.985-2.492,3.063-2.492
			c0.401,0,0.675,0.039,0.675,0.039v1.896c0,0-0.156-0.026-0.363-0.026c-0.442,0-1.13,0.078-1.13,0.649v0.09h4.568v6.684h-2.245
			V8.908z M87.983,4.56h2.193v1.751h-2.193V4.56z"/>
		<path fill="#FFFFFF" d="M91.862,4.56h2.244v4.802h0.636l1.324-2.207h2.44l-1.96,3.037v0.026l2.232,3.621h-2.558l-1.414-2.595
			h-0.701v2.595h-2.244V4.56z"/>
		<path fill="#FFFFFF" d="M99.544,7.155h2.244v3.92c0,0.623,0.248,0.882,0.715,0.882c0.96,0,1.415-0.843,1.415-1.842V7.155h2.244
			v6.684h-2.154v-0.583c0-0.221,0.025-0.416,0.025-0.416h-0.025c-0.363,0.714-1.194,1.155-2.091,1.155
			c-1.323,0-2.373-0.623-2.373-2.504V7.155z"/>
		<path fill="#FFFFFF" d="M108.042,11.684h2.141l-1.466,3.596h-1.647L108.042,11.684z"/>
		<path fill="#FFFFFF" d="M8.3,22.57c1.349,0,1.751,0.532,1.751,0.532h0.027c0,0-0.013-0.13-0.013-0.298V20.13h2.245v9.28h-2.102
			v-0.441c0-0.208,0.012-0.376,0.012-0.376h-0.026c0,0-0.558,0.973-1.934,0.973c-1.816,0-3.01-1.428-3.01-3.503
			C5.25,23.946,6.522,22.57,8.3,22.57z M8.818,27.71c0.675,0,1.311-0.492,1.311-1.647c0-0.806-0.428-1.598-1.311-1.598
			c-0.701,0-1.31,0.571-1.31,1.598C7.508,27.062,8.04,27.71,8.818,27.71z"/>
		<path fill="#FFFFFF" d="M13.97,22.726h2.246v6.684H13.97V22.726z M13.996,20.13h2.193v1.752h-2.193V20.13z"/>
		<path fill="#FFFFFF" d="M17.486,28.294l2.453-3.076c0.337-0.415,0.584-0.609,0.584-0.609v-0.027c0,0-0.169,0.027-0.584,0.027
			H17.59v-1.882h5.97v1.129l-2.44,3.076c-0.326,0.402-0.597,0.609-0.597,0.609v0.025c0,0,0.168-0.039,0.597-0.039h2.505v1.883
			h-6.139V28.294z"/>
		<path fill="#FFFFFF" d="M28.295,25.244h0.091v-0.116c0-0.56-0.428-0.741-0.986-0.741c-0.845,0-1.805,0.637-1.805,0.637
			l-0.779-1.583c0,0,1.155-0.87,2.804-0.87c1.881,0,3.01,1.025,3.01,2.727v4.113h-2.05v-0.402c0-0.221,0.027-0.415,0.027-0.415
			h-0.027c0,0-0.493,0.973-1.894,0.973c-1.246,0-2.271-0.83-2.271-2.154C24.415,25.465,27.256,25.244,28.295,25.244z M27.309,27.853
			c0.584,0,1.103-0.635,1.103-1.181v-0.144h-0.208c-0.714,0-1.532,0.208-1.532,0.766C26.673,27.606,26.867,27.853,27.309,27.853z"/>
		<path fill="#FFFFFF" d="M34.433,22.726v6.852c0,2.246-2.103,2.531-3.141,2.531c-0.363,0-0.597-0.039-0.597-0.039v-1.869
			c0,0,0.116,0.014,0.285,0.014c0.442,0,1.207-0.104,1.207-0.857v-6.631H34.433z M32.214,20.13h2.192v1.752h-2.192V20.13z"/>
		<path fill="#FFFFFF" d="M36.093,22.726h2.155v0.584c0,0.221-0.027,0.416-0.027,0.416h0.027c0.311-0.519,0.947-1.155,2.128-1.155
			c1.349,0,2.401,0.624,2.401,2.505v4.335h-2.246v-3.92c0-0.623-0.246-0.882-0.739-0.882c-0.702,0-1.129,0.388-1.324,0.96
			c-0.091,0.26-0.13,0.559-0.13,0.883v2.959h-2.245V22.726z"/>
		<path fill="#FFFFFF" d="M47.317,22.726h2.245v6.684h-2.245V22.726z M47.343,20.13h2.193v1.752h-2.193V20.13z"/>
		<path fill="#FFFFFF" d="M54.193,22.726h2.155v0.584c0,0.221-0.027,0.416-0.027,0.416h0.027c0.311-0.467,0.935-1.155,1.985-1.155
			c0.843,0,1.518,0.376,1.869,1.128h0.025c0.351-0.557,1.142-1.128,2.142-1.128c1.22,0,2.167,0.663,2.167,2.505v4.335h-2.245v-3.959
			c0-0.492-0.091-0.843-0.519-0.843c-0.714,0-1.091,0.52-1.233,1.258c-0.052,0.233-0.052,0.507-0.052,0.778v2.766h-2.246v-3.959
			c0-0.492-0.09-0.843-0.518-0.843c-0.702,0-1.065,0.492-1.221,1.207c-0.052,0.247-0.064,0.545-0.064,0.829v2.766h-2.245V22.726z"/>
		<path fill="#FFFFFF" d="M69.103,22.57c1.974,0,3.089,1.376,3.089,3.231c0,0.221-0.051,0.702-0.051,0.702h-4.218
			c0.168,0.816,0.843,1.192,1.557,1.192c0.96,0,1.842-0.674,1.842-0.674l0.831,1.57c0,0-1.076,0.973-2.855,0.973
			c-2.387,0-3.672-1.726-3.672-3.503C65.625,24.102,66.948,22.57,69.103,22.57z M69.934,25.218c0-0.505-0.35-0.96-0.883-0.96
			c-0.649,0-0.96,0.467-1.076,0.96H69.934z"/>
		<path fill="#FFFFFF" d="M76.007,22.57c1.348,0,1.751,0.532,1.751,0.532h0.026c0,0-0.014-0.13-0.014-0.298V20.13h2.246v9.28h-2.104
			v-0.441c0-0.208,0.013-0.376,0.013-0.376h-0.024c0,0-0.56,0.973-1.935,0.973c-1.816,0-3.011-1.428-3.011-3.503
			C72.956,23.946,74.228,22.57,76.007,22.57z M76.524,27.71c0.676,0,1.312-0.492,1.312-1.647c0-0.806-0.43-1.598-1.312-1.598
			c-0.701,0-1.311,0.571-1.311,1.598C75.214,27.062,75.746,27.71,76.524,27.71z"/>
		<path fill="#FFFFFF" d="M81.676,22.726h2.244v6.684h-2.244V22.726z M81.702,20.13h2.193v1.752h-2.193V20.13z"/>
		<path fill="#FFFFFF" d="M87.826,22.726v6.852c0,2.246-2.103,2.531-3.141,2.531c-0.362,0-0.597-0.039-0.597-0.039v-1.869
			c0,0,0.116,0.014,0.284,0.014c0.442,0,1.208-0.104,1.208-0.857v-6.631H87.826z M85.607,20.13H87.8v1.752h-2.192V20.13z"/>
		<path fill="#FFFFFF" d="M89.929,27.074c0,0,0.74,0.674,1.7,0.674c0.338,0,0.661-0.09,0.661-0.311c0-0.584-3.127-0.649-3.127-2.829
			c0-1.259,1.207-2.038,2.752-2.038c1.557,0,2.348,0.766,2.348,0.766l-0.765,1.598c0,0-0.649-0.547-1.583-0.547
			c-0.338,0-0.662,0.092-0.662,0.326c0,0.505,3.128,0.584,3.128,2.737c0,1.143-1.014,2.115-2.739,2.115
			c-1.674,0-2.674-0.987-2.674-0.987L89.929,27.074z"/>
		<path fill="#FFFFFF" d="M95.599,20.13h2.246v4.803h0.635l1.324-2.208h2.44l-1.961,3.038v0.025l2.232,3.621H99.96l-1.416-2.596
			h-0.699v2.596h-2.246V20.13z"/>
		<path fill="#FFFFFF" d="M103.281,22.726h2.244v3.918c0,0.624,0.247,0.883,0.714,0.883c0.96,0,1.415-0.843,1.415-1.843v-2.958
			h2.245v6.684h-2.155v-0.584c0-0.221,0.027-0.416,0.027-0.416h-0.027c-0.363,0.714-1.193,1.155-2.089,1.155
			c-1.323,0-2.374-0.622-2.374-2.504V22.726z"/>
		<path fill="#FFFFFF" d="M42.178,38.297h2.024v0.338c0,0.221-0.025,0.428-0.025,0.428h0.025c0,0,0.61-0.921,2.024-0.921
			c1.818,0,3.011,1.427,3.011,3.505c0,2.114-1.336,3.491-3.114,3.491c-1.09,0-1.701-0.638-1.701-0.638h-0.025
			c0,0,0.025,0.234,0.025,0.573v2.504h-2.245V38.297z M45.669,43.28c0.7,0,1.311-0.57,1.311-1.596c0-0.999-0.533-1.648-1.311-1.648
			c-0.674,0-1.311,0.493-1.311,1.648C44.358,42.489,44.786,43.28,45.669,43.28z"/>
		<path fill="#FFFFFF" d="M50.444,38.297h2.154v1.131c0,0.221-0.026,0.414-0.026,0.414h0.026c0.285-0.908,1.129-1.662,2.128-1.662
			c0.129,0,0.259,0.027,0.259,0.027v2.206c0,0-0.181-0.039-0.454-0.039c-0.533,0-1.402,0.169-1.727,1.168
			c-0.078,0.245-0.117,0.545-0.117,0.907v2.532h-2.244V38.297z"/>
		<path fill="#FFFFFF" d="M59.307,38.142c2.115,0,3.802,1.414,3.802,3.518c0,2.09-1.687,3.479-3.79,3.479
			c-2.102,0-3.79-1.389-3.79-3.479C55.529,39.556,57.217,38.142,59.307,38.142z M59.319,43.269c0.818,0,1.52-0.61,1.52-1.609
			c0-1.013-0.701-1.648-1.52-1.648c-0.816,0-1.518,0.636-1.518,1.648C57.801,42.658,58.502,43.269,59.319,43.269z"/>
		<path fill="#FFFFFF" d="M66.871,38.142c1.349,0,1.752,0.531,1.752,0.531h0.026c0,0-0.013-0.129-0.013-0.297v-2.675h2.245v9.28
			h-2.102V44.54c0-0.208,0.013-0.378,0.013-0.378h-0.026c0,0-0.558,0.976-1.934,0.976c-1.816,0-3.011-1.428-3.011-3.505
			C63.821,39.517,65.093,38.142,66.871,38.142z M67.39,43.28c0.675,0,1.312-0.492,1.312-1.647c0-0.805-0.429-1.597-1.312-1.597
			c-0.701,0-1.311,0.571-1.311,1.597C66.079,42.632,66.611,43.28,67.39,43.28z"/>
		<path fill="#FFFFFF" d="M72.45,38.297h2.245v3.92c0,0.623,0.247,0.883,0.714,0.883c0.959,0,1.415-0.844,1.415-1.843v-2.96h2.245
			v6.685h-2.155v-0.585c0-0.22,0.027-0.415,0.027-0.415h-0.027c-0.363,0.715-1.193,1.156-2.088,1.156
			c-1.324,0-2.375-0.625-2.375-2.506V38.297z"/>
		<path fill="#FFFFFF" d="M80.729,35.701h2.244v4.802h0.637l1.324-2.206h2.439l-1.959,3.037v0.026l2.232,3.621h-2.558l-1.415-2.596
			h-0.701v2.596h-2.244V35.701z"/>
		<path fill="#FFFFFF" d="M91.642,38.142c1.817,0,2.66,1.013,2.66,1.013l-0.946,1.505c0,0-0.649-0.648-1.572-0.648
			c-1.063,0-1.596,0.805-1.596,1.596s0.547,1.662,1.675,1.662c0.935,0,1.83-0.806,1.83-0.806l0.817,1.571
			c0,0-0.999,1.104-2.868,1.104c-2.389,0-3.724-1.662-3.724-3.505C87.918,39.842,89.24,38.142,91.642,38.142z"/>
		<path fill="#FFFFFF" d="M95.56,38.297h2.245v6.685H95.56V38.297z M95.586,35.701h2.193v1.753h-2.193V35.701z"/>
		<path fill="#FFFFFF" d="M101.71,38.297v6.854c0,2.244-2.102,2.53-3.14,2.53c-0.363,0-0.598-0.039-0.598-0.039v-1.87
			c0,0,0.117,0.014,0.285,0.014c0.442,0,1.208-0.103,1.208-0.856v-6.632H101.71z M99.491,35.701h2.194v1.753h-2.194V35.701z"/>
		<path fill="#FFFFFF" d="M103.281,38.297h2.244v3.92c0,0.623,0.247,0.883,0.714,0.883c0.96,0,1.415-0.844,1.415-1.843v-2.96h2.245
			v6.685h-2.155v-0.585c0-0.22,0.027-0.415,0.027-0.415h-0.027c-0.363,0.715-1.193,1.156-2.089,1.156
			c-1.323,0-2.374-0.625-2.374-2.506V38.297z"/>
	</g>
	<g>
	</g>
	<g>
	</g>
	<g>
	</g>
	<g>
	</g>
	<g>
	</g>
	<g>
	</g>
	<g>
	</g>
	<g>
	</g>
	<g>
	</g>
	<g>
	</g>
	<g>
	</g>
	<g>
	</g>
	<g>
	</g>
	<g>
	</g>
	<g>
	</g>
</g>
</svg>
