<?xml version="1.0" encoding="utf-8"?>
<!-- Generator: Adobe Illustrator 15.1.0, SVG Export Plug-In . SVG Version: 6.00 Build 0)  -->
<!DOCTYPE svg PUBLIC "-//W3C//DTD SVG 1.1//EN" "http://www.w3.org/Graphics/SVG/1.1/DTD/svg11.dtd">
<svg version="1.1" id="Layer_1" xmlns="http://www.w3.org/2000/svg" xmlns:xlink="http://www.w3.org/1999/xlink" x="0px" y="0px"
	 width="226px" height="72px" viewBox="0 0 226 72" enable-background="new 0 0 226 72" xml:space="preserve">
<path fill="#FFFFFF" d="M223.647,36.793c0.693-0.389,0.666-1.097,0.666-1.097s-0.008-0.919-0.008-1.222
	c0-0.3-0.297-0.474-0.762-0.226c-0.403,0.218-36.949,20.444-46.274,25.608v-0.525c0-1.255,0.229-1.792,0.805-2.111
	c0.579-0.318,43.671-24.178,43.671-24.178c3.49-2.014,3.49-5.311,0-7.327L180.523,1.915c-3.49-2.014-6.345-0.365-6.345,3.665v47.595
	c0,0.163,0.013,0.314,0.021,0.468v11.783c0,3.364,1.88,5.631,4.678,5.631c1.076,0,2.203-0.335,3.348-0.999
	c0,0,37.977-20.936,39.576-21.725c2.865-1.408,2.491-4.993,2.491-4.993L180.69,67.401c-0.672,0.388-1.28,0.585-1.813,0.585
	c-0.726,0-1.127-0.446-1.348-0.989c7.534-4.165,45.493-25.16,46.117-25.513c0.693-0.388,0.666-1.097,0.666-1.097
	s-0.008-0.919-0.008-1.221c0-0.301-0.297-0.478-0.762-0.227c-0.403,0.219-36.949,20.444-46.274,25.605v-2.094
	C184.135,58.654,223.016,37.148,223.647,36.793"/>
<path fill="#FFFFFF" d="M5.756,14.713c0,0,1.556,1.422,3.285,1.422c0.691,0,1.441-0.269,1.441-1.095
	c0-1.633-6.188-1.576-6.188-5.803c0-2.536,2.133-4.208,4.863-4.208c2.959,0,4.418,1.557,4.418,1.557l-1.421,2.748
	c0,0-1.384-1.21-3.035-1.21c-0.693,0-1.461,0.308-1.461,1.077c0,1.729,6.187,1.421,6.187,5.764c0,2.287-1.75,4.265-4.842,4.265
	c-3.229,0-5.015-1.959-5.015-1.959L5.756,14.713z M5.506,1.493h2.593l0.903,1.576h0.038l0.903-1.576h2.594l-1.902,2.883H7.407
	L5.506,1.493z"/>
<polygon fill="#FFFFFF" points="15.764,5.26 19.087,5.26 19.087,12.369 20.03,12.369 21.988,9.102 25.601,9.102 22.7,13.599 
	22.7,13.636 26.005,18.998 22.22,18.998 20.125,15.155 19.087,15.155 19.087,18.998 15.764,18.998 "/>
<path fill="#FFFFFF" d="M31.999,8.872c3.132,0,5.63,2.094,5.63,5.207c0,3.094-2.498,5.15-5.611,5.15
	c-3.113,0-5.611-2.056-5.611-5.15C26.406,10.966,28.904,8.872,31.999,8.872 M32.017,16.461c1.212,0,2.249-0.903,2.249-2.383
	c0-1.499-1.037-2.44-2.249-2.44c-1.21,0-2.249,0.941-2.249,2.44C29.768,15.559,30.807,16.461,32.017,16.461"/>
<path fill="#FFFFFF" d="M39.221,5.26h3.323v9.645c0,0.943,0.173,1.269,0.922,1.269c0.21,0,0.403-0.02,0.403-0.02v2.883
	c0,0-0.461,0.058-0.999,0.058c-1.768,0-3.65-0.423-3.65-3.747V5.26z"/>
<path fill="#FFFFFF" d="M50.556,12.83h0.135v-0.173c0-0.826-0.633-1.095-1.459-1.095c-1.25,0-2.672,0.941-2.672,0.941l-1.152-2.344
	c0,0,1.71-1.288,4.15-1.288c2.786,0,4.458,1.518,4.458,4.035v6.091h-3.036v-0.595c0-0.327,0.038-0.615,0.038-0.615h-0.038
	c0,0-0.731,1.44-2.804,1.44c-1.846,0-3.364-1.23-3.364-3.188C44.811,13.156,49.019,12.83,50.556,12.83 M49.096,16.692
	c0.865,0,1.634-0.94,1.634-1.749v-0.21h-0.308c-1.057,0-2.268,0.307-2.268,1.132C48.154,16.328,48.442,16.692,49.096,16.692"/>
<path fill="#FFFFFF" d="M60.142,17.345l3.632-4.554c0.5-0.615,0.864-0.903,0.864-0.903V11.85c0,0-0.248,0.039-0.864,0.039h-3.479
	V9.103h8.838v1.671l-3.612,4.554c-0.48,0.596-0.884,0.903-0.884,0.903v0.038c0,0,0.25-0.057,0.884-0.057h3.709v2.786h-9.089V17.345z
	"/>
<path fill="#FFFFFF" d="M76.146,12.83h0.134v-0.173c0-0.826-0.633-1.095-1.459-1.095c-1.25,0-2.672,0.941-2.672,0.941l-1.152-2.344
	c0,0,1.709-1.288,4.149-1.288c2.787,0,4.458,1.518,4.458,4.035v6.091h-3.036v-0.595c0-0.327,0.037-0.615,0.037-0.615h-0.037
	c0,0-0.731,1.44-2.805,1.44c-1.846,0-3.364-1.23-3.364-3.188C70.4,13.156,74.607,12.83,76.146,12.83 M74.684,16.692
	c0.865,0,1.634-0.94,1.634-1.749v-0.21h-0.307c-1.057,0-2.269,0.307-2.269,1.132C73.743,16.328,74.032,16.692,74.684,16.692"/>
<path fill="#FFFFFF" d="M90.324,20.266c1.191,0,2.287-0.442,2.287-1.902v-0.326c0-0.116,0.019-0.365,0.019-0.365h-0.038
	c-0.577,0.691-1.326,1.038-2.479,1.038c-2.978,0-4.458-2.44-4.458-4.977c0-2.517,1.441-4.862,4.438-4.862
	c1.807,0,2.691,0.961,2.691,0.961h0.057c0,0-0.019-0.115-0.019-0.23v-0.5h3.113v8.993c0,3.613-2.883,4.938-5.593,4.938
	c-1.325,0-2.786-0.384-3.745-0.884l0.94-2.517C87.537,19.632,88.769,20.266,90.324,20.266 M92.688,13.771
	c0-1.749-0.923-2.133-1.921-2.133c-1.174,0-1.769,0.846-1.769,1.979c0,1.229,0.575,2.325,1.901,2.325
	C91.765,15.943,92.688,15.501,92.688,13.771"/>
<path fill="#FFFFFF" d="M98.392,9.102h3.19v1.671c0,0.328-0.038,0.615-0.038,0.615h0.038c0.422-1.345,1.672-2.458,3.151-2.458
	c0.192,0,0.385,0.038,0.385,0.038v3.266c0,0-0.269-0.058-0.672-0.058c-0.789,0-2.076,0.25-2.556,1.73
	c-0.115,0.365-0.174,0.806-0.174,1.345v3.747h-3.323V9.102z"/>
<path fill="#FFFFFF" d="M111.647,12.83h0.135v-0.173c0-0.826-0.634-1.095-1.459-1.095c-1.25,0-2.672,0.941-2.672,0.941l-1.152-2.344
	c0,0,1.71-1.288,4.151-1.288c2.785,0,4.457,1.518,4.457,4.035v6.091h-3.036v-0.595c0-0.327,0.038-0.615,0.038-0.615h-0.038
	c0,0-0.731,1.44-2.805,1.44c-1.845,0-3.363-1.23-3.363-3.188C105.902,13.156,110.11,12.83,111.647,12.83 M110.188,16.692
	c0.864,0,1.633-0.94,1.633-1.749v-0.21h-0.307c-1.057,0-2.269,0.307-2.269,1.132C109.245,16.328,109.535,16.692,110.188,16.692"/>
<path fill="#FFFFFF" d="M124.733,11.696h-3.441v7.302h-3.323v-7.302h-1.211V9.102h1.211v-0.23c0-3.247,2.939-3.689,4.534-3.689
	c0.596,0,0.999,0.058,0.999,0.058v2.805c0,0-0.23-0.039-0.537-0.039c-0.654,0-1.673,0.115-1.673,0.96v0.135h6.764v9.896h-3.322
	V11.696z M124.771,5.259h3.247v2.593h-3.247V5.259z"/>
<polygon fill="#FFFFFF" points="130.514,5.26 133.837,5.26 133.837,12.369 134.778,12.369 136.739,9.102 140.352,9.102 
	137.449,13.599 137.449,13.636 140.755,18.998 136.969,18.998 134.875,15.155 133.837,15.155 133.837,18.998 130.514,18.998 "/>
<path fill="#FFFFFF" d="M141.886,9.102h3.325v5.803c0,0.922,0.365,1.307,1.057,1.307c1.421,0,2.095-1.249,2.095-2.728V9.102h3.323
	v9.896h-3.189v-0.864c0-0.327,0.038-0.615,0.038-0.615h-0.038c-0.538,1.056-1.768,1.709-3.095,1.709
	c-1.959,0-3.516-0.922-3.516-3.708V9.102z"/>
<polygon fill="#FFFFFF" points="154.47,15.808 157.64,15.808 155.469,21.13 153.028,21.13 "/>
<path fill="#FFFFFF" d="M6.793,31.925c1.998,0,2.593,0.788,2.593,0.788h0.04c0,0-0.019-0.192-0.019-0.442v-3.958h3.324v13.738H9.618
	v-0.653c0-0.307,0.019-0.556,0.019-0.556H9.598c0,0-0.825,1.44-2.863,1.44c-2.689,0-4.457-2.115-4.457-5.188
	C2.278,33.962,4.161,31.925,6.793,31.925 M7.562,39.534c1,0,1.941-0.729,1.941-2.44c0-1.191-0.635-2.363-1.941-2.363
	c-1.038,0-1.94,0.845-1.94,2.363C5.622,38.574,6.409,39.534,7.562,39.534"/>
<path fill="#FFFFFF" d="M15.188,32.156h3.324v9.895h-3.324V32.156z M15.227,28.313h3.247v2.594h-3.247V28.313z"/>
<path fill="#FFFFFF" d="M20.394,40.398l3.632-4.554c0.499-0.615,0.865-0.903,0.865-0.903v-0.039c0,0-0.25,0.039-0.865,0.039h-3.478
	v-2.786h8.838v1.671l-3.611,4.555c-0.482,0.596-0.884,0.902-0.884,0.902v0.039c0,0,0.25-0.059,0.884-0.059h3.709v2.786h-9.09V40.398
	z"/>
<path fill="#FFFFFF" d="M36.398,35.884h0.134v-0.173c0-0.827-0.633-1.096-1.459-1.096c-1.25,0-2.671,0.942-2.671,0.942l-1.153-2.344
	c0,0,1.709-1.288,4.15-1.288c2.785,0,4.458,1.518,4.458,4.036v6.09h-3.036v-0.595c0-0.326,0.038-0.614,0.038-0.614h-0.038
	c0,0-0.731,1.44-2.805,1.44c-1.845,0-3.364-1.229-3.364-3.189C30.653,36.209,34.86,35.884,36.398,35.884 M34.938,39.745
	c0.865,0,1.633-0.939,1.633-1.747v-0.213h-0.307c-1.057,0-2.268,0.309-2.268,1.135C33.997,39.382,34.285,39.745,34.938,39.745"/>
<path fill="#FFFFFF" d="M45.485,32.156V42.3c0,3.326-3.114,3.749-4.65,3.749c-0.537,0-0.884-0.059-0.884-0.059v-2.767
	c0,0,0.172,0.02,0.422,0.02c0.654,0,1.788-0.154,1.788-1.269v-9.818H45.485z M42.2,28.313h3.246v2.594H42.2V28.313z"/>
<path fill="#FFFFFF" d="M47.943,32.156h3.189v0.865c0,0.327-0.038,0.615-0.038,0.615h0.038c0.461-0.769,1.403-1.71,3.151-1.71
	c1.998,0,3.554,0.922,3.554,3.708v6.417h-3.324v-5.802c0-0.922-0.364-1.307-1.094-1.307c-1.039,0-1.672,0.577-1.96,1.422
	c-0.134,0.385-0.193,0.827-0.193,1.307v4.38h-3.324V32.156z"/>
<path fill="#FFFFFF" d="M64.561,32.156h3.324v9.895h-3.324V32.156z M64.6,28.313h3.246v2.594H64.6V28.313z"/>
<path fill="#FFFFFF" d="M74.742,32.156h3.189v0.865c0,0.327-0.038,0.615-0.038,0.615h0.038c0.461-0.692,1.384-1.71,2.94-1.71
	c1.249,0,2.247,0.557,2.766,1.671h0.038c0.52-0.826,1.691-1.671,3.17-1.671c1.806,0,3.209,0.98,3.209,3.708v6.417h-3.324v-5.86
	c0-0.73-0.134-1.249-0.768-1.249c-1.059,0-1.616,0.769-1.828,1.863c-0.075,0.346-0.075,0.75-0.075,1.153v4.093h-3.326v-5.86
	c0-0.73-0.134-1.249-0.768-1.249c-1.038,0-1.575,0.73-1.807,1.787c-0.076,0.365-0.096,0.807-0.096,1.229v4.093h-3.323V32.156z"/>
<path fill="#FFFFFF" d="M96.816,31.925c2.921,0,4.574,2.037,4.574,4.784c0,0.327-0.077,1.039-0.077,1.039h-6.245
	c0.25,1.21,1.249,1.766,2.306,1.766c1.422,0,2.726-0.998,2.726-0.998l1.232,2.326c0,0-1.595,1.441-4.229,1.441
	c-3.535,0-5.437-2.557-5.437-5.189C91.667,34.193,93.627,31.925,96.816,31.925 M98.047,35.845c0-0.749-0.519-1.422-1.307-1.422
	c-0.96,0-1.421,0.692-1.594,1.422H98.047z"/>
<path fill="#FFFFFF" d="M107.038,31.925c1.997,0,2.592,0.788,2.592,0.788h0.039c0,0-0.019-0.192-0.019-0.442v-3.958h3.324v13.738
	h-3.113v-0.653c0-0.307,0.019-0.556,0.019-0.556h-0.039c0,0-0.826,1.44-2.863,1.44c-2.688,0-4.457-2.115-4.457-5.188
	C102.521,33.962,104.405,31.925,107.038,31.925 M107.805,39.534c0.999,0,1.941-0.729,1.941-2.44c0-1.191-0.635-2.363-1.941-2.363
	c-1.038,0-1.94,0.845-1.94,2.363C105.865,38.574,106.653,39.534,107.805,39.534"/>
<path fill="#FFFFFF" d="M115.432,32.156h3.323v9.895h-3.323V32.156z M115.471,28.313h3.247v2.594h-3.247V28.313z"/>
<path fill="#FFFFFF" d="M124.538,32.156V42.3c0,3.326-3.113,3.749-4.649,3.749c-0.538,0-0.884-0.059-0.884-0.059v-2.767
	c0,0,0.172,0.02,0.422,0.02c0.652,0,1.787-0.154,1.787-1.269v-9.818H124.538z M121.252,28.313h3.248v2.594h-3.248V28.313z"/>
<path fill="#FFFFFF" d="M127.651,38.593c0,0,1.096,0.998,2.517,0.998c0.5,0,0.979-0.134,0.979-0.46c0-0.865-4.63-0.96-4.63-4.189
	c0-1.864,1.787-3.017,4.074-3.017c2.306,0,3.477,1.133,3.477,1.133l-1.133,2.364c0,0-0.962-0.808-2.344-0.808
	c-0.501,0-0.98,0.135-0.98,0.48c0,0.749,4.631,0.864,4.631,4.055c0,1.691-1.5,3.132-4.055,3.132c-2.479,0-3.959-1.461-3.959-1.461
	L127.651,38.593z"/>
<polygon fill="#FFFFFF" points="136.046,28.313 139.369,28.313 139.369,35.422 140.312,35.422 142.271,32.156 145.884,32.156 
	142.982,36.653 142.982,36.689 146.287,42.051 142.502,42.051 140.407,38.209 139.369,38.209 139.369,42.051 136.046,42.051 "/>
<path fill="#FFFFFF" d="M147.419,32.156h3.324v5.802c0,0.923,0.365,1.307,1.057,1.307c1.422,0,2.095-1.248,2.095-2.728v-4.381h3.324
	v9.895h-3.19v-0.863c0-0.326,0.039-0.616,0.039-0.616h-0.039c-0.537,1.058-1.767,1.711-3.094,1.711
	c-1.959,0-3.516-0.922-3.516-3.708V32.156z"/>
<path fill="#FFFFFF" d="M56.953,55.209h2.997v0.501c0,0.327-0.037,0.633-0.037,0.633h0.037c0,0,0.904-1.363,2.998-1.363
	c2.692,0,4.459,2.112,4.459,5.188c0,3.131-1.979,5.169-4.611,5.169c-1.614,0-2.519-0.943-2.519-0.943h-0.038
	c0,0,0.038,0.346,0.038,0.848v3.708h-3.323V55.209z M62.122,62.588c1.037,0,1.94-0.845,1.94-2.363c0-1.479-0.789-2.439-1.94-2.439
	c-1,0-1.941,0.729-1.941,2.439C60.181,61.417,60.814,62.588,62.122,62.588"/>
<path fill="#FFFFFF" d="M69.191,55.209h3.189v1.674c0,0.326-0.038,0.613-0.038,0.613h0.038c0.423-1.344,1.672-2.459,3.151-2.459
	c0.191,0,0.384,0.039,0.384,0.039v3.267c0,0-0.269-0.058-0.671-0.058c-0.79,0-2.077,0.249-2.557,1.729
	c-0.115,0.364-0.173,0.808-0.173,1.345v3.747h-3.323V55.209z"/>
<path fill="#FFFFFF" d="M82.313,54.98c3.132,0,5.629,2.093,5.629,5.206c0,3.095-2.497,5.15-5.611,5.15
	c-3.113,0-5.611-2.056-5.611-5.15C76.72,57.073,79.219,54.98,82.313,54.98 M82.332,62.569c1.211,0,2.25-0.903,2.25-2.383
	c0-1.498-1.039-2.44-2.25-2.44c-1.209,0-2.249,0.942-2.249,2.44C80.083,61.666,81.122,62.569,82.332,62.569"/>
<path fill="#FFFFFF" d="M93.512,54.979c1.998,0,2.593,0.787,2.593,0.787h0.039c0,0-0.019-0.191-0.019-0.44v-3.959h3.324v13.738
	h-3.113v-0.653c0-0.308,0.019-0.558,0.019-0.558h-0.038c0,0-0.826,1.442-2.863,1.442c-2.69,0-4.457-2.114-4.457-5.188
	C88.997,57.016,90.88,54.979,93.512,54.979 M94.28,62.588c1,0,1.942-0.729,1.942-2.439c0-1.191-0.635-2.363-1.942-2.363
	c-1.037,0-1.94,0.845-1.94,2.363C92.339,61.628,93.128,62.588,94.28,62.588"/>
<path fill="#FFFFFF" d="M101.773,55.209h3.324v5.804c0,0.922,0.364,1.307,1.057,1.307c1.421,0,2.095-1.248,2.095-2.728v-4.383h3.324
	v9.896h-3.19v-0.864c0-0.326,0.039-0.615,0.039-0.615h-0.039c-0.538,1.058-1.767,1.711-3.093,1.711
	c-1.959,0-3.516-0.924-3.516-3.709V55.209z"/>
<polygon fill="#FFFFFF" points="114.029,51.367 117.354,51.367 117.354,58.476 118.295,58.476 120.256,55.209 123.867,55.209 
	120.966,59.706 120.966,59.744 124.271,65.105 120.485,65.105 118.391,61.263 117.354,61.263 117.354,65.105 114.029,65.105 "/>
<path fill="#FFFFFF" d="M130.188,54.979c2.689,0,3.938,1.499,3.938,1.499l-1.401,2.229c0,0-0.962-0.961-2.326-0.961
	c-1.576,0-2.363,1.192-2.363,2.363c0,1.172,0.808,2.46,2.479,2.46c1.383,0,2.71-1.191,2.71-1.191l1.21,2.325
	c0,0-1.479,1.634-4.246,1.634c-3.536,0-5.516-2.46-5.516-5.188C124.672,57.496,126.632,54.979,130.188,54.979"/>
<path fill="#FFFFFF" d="M135.988,55.209h3.324v9.896h-3.324V55.209z M136.027,51.367h3.247v2.594h-3.247V51.367z"/>
<path fill="#FFFFFF" d="M145.095,55.209v10.146c0,3.324-3.112,3.747-4.649,3.747c-0.538,0-0.885-0.059-0.885-0.059v-2.767
	c0,0,0.173,0.02,0.423,0.02c0.653,0,1.788-0.152,1.788-1.269v-9.819H145.095z M141.81,51.367h3.248v2.594h-3.248V51.367z"/>
<path fill="#FFFFFF" d="M147.419,55.209h3.324v5.804c0,0.922,0.365,1.307,1.057,1.307c1.422,0,2.095-1.248,2.095-2.728v-4.383h3.324
	v9.896h-3.19v-0.864c0-0.326,0.039-0.615,0.039-0.615h-0.039c-0.537,1.058-1.767,1.711-3.094,1.711
	c-1.959,0-3.516-0.924-3.516-3.709V55.209z"/>
</svg>
