<?xml version="1.0" encoding="utf-8"?>
<!-- Generator: Adobe Illustrator 23.0.1, SVG Export Plug-In . SVG Version: 6.00 Build 0)  -->
<svg version="1.1" id="Layer_1" xmlns="http://www.w3.org/2000/svg" xmlns:xlink="http://www.w3.org/1999/xlink" x="0px" y="0px"
	 viewBox="0 0 215 220" style="enable-background:new 0 0 215 220;" xml:space="preserve">
<style type="text/css">
	.st0{display:none;}
	.st1{display:inline;fill:none;stroke:#000000;stroke-width:7;stroke-linecap:round;stroke-linejoin:round;stroke-miterlimit:10;}
	
		.st2{display:inline;fill:#49AD68;stroke:#000000;stroke-width:7;stroke-linecap:round;stroke-linejoin:round;stroke-miterlimit:10;}
	.st3{display:inline;fill:none;stroke:#000000;stroke-width:7;stroke-miterlimit:10;}
	.st4{display:inline;fill:none;stroke:#000000;stroke-width:6;stroke-linecap:round;stroke-linejoin:round;stroke-miterlimit:10;}
	
		.st5{display:inline;fill:#FFFFFF;stroke:#000000;stroke-width:7;stroke-linecap:round;stroke-linejoin:round;stroke-miterlimit:10;}
	.st6{display:inline;fill:none;stroke:#000000;stroke-width:12;stroke-linecap:round;stroke-linejoin:round;stroke-miterlimit:10;}
	.st7{display:inline;}
	.st8{stroke:#000000;stroke-width:2;stroke-linecap:round;stroke-linejoin:round;stroke-miterlimit:10;}
	.st9{fill:none;stroke:#000000;stroke-width:7;stroke-linecap:round;stroke-linejoin:round;stroke-miterlimit:10;}
	.st10{fill:#49AD68;stroke:#000000;stroke-width:7;stroke-linecap:round;stroke-linejoin:round;stroke-miterlimit:10;}
	.st11{fill:#FFFFFF;stroke:#000000;stroke-width:7;stroke-linecap:round;stroke-linejoin:round;stroke-miterlimit:10;}
</style>
<g class="st0">
	<polyline class="st1" points="58.75,96.75 58.75,215.25 155.75,215.25 155.75,96.75 	"/>
	<polyline class="st1" points="41.75,95.75 107,26.25 172.08,95.58 	"/>
	<circle class="st1" cx="107" cy="96" r="23.25"/>
	<rect x="82.75" y="145.25" class="st1" width="47" height="70"/>
	<polyline class="st2" points="142.25,14.25 183.75,14.25 183.75,43.25 142.25,43.25 	"/>
	<polyline class="st1" points="156.25,112.25 184.19,112.25 204.75,139.25 156.25,139.25 	"/>
	<polyline class="st1" points="156.25,215.25 193.75,215.25 193.75,139.75 	"/>
	<polyline class="st1" points="58.25,112.25 30.77,112.25 10.25,139.25 58.25,139.25 	"/>
	<polyline class="st1" points="59.25,215.25 20.75,215.25 20.75,139.75 	"/>
	<line class="st3" x1="105.75" y1="144.75" x2="105.75" y2="214.75"/>
	<polyline class="st4" points="106.25,84.75 106.25,96.75 117.25,96.75 	"/>
	<line class="st1" x1="141.75" y1="62.75" x2="141.75" y2="6.75"/>
</g>
<g class="st0">
	<polyline class="st1" points="22,126.5 22,40 193,40 193,126.5 	"/>
	<rect x="22" y="140" class="st1" width="171" height="26"/>
	<rect x="54" y="70" class="st2" width="102" height="38"/>
	<polygon class="st5" points="150.73,123.85 172.16,102.42 142.75,94.44 	"/>
	<line class="st6" x1="163.22" y1="115.26" x2="173.6" y2="124.85"/>
	<path class="st7" d="M180.5,153c0,3.04-2.46,5.5-5.5,5.5l0,0c-3.04,0-5.5-2.46-5.5-5.5l0,0c0-3.04,2.46-5.5,5.5-5.5l0,0
		C178.04,147.5,180.5,149.96,180.5,153L180.5,153z"/>
	<path class="st7" d="M159.5,153c0,3.04-2.46,5.5-5.5,5.5l0,0c-3.04,0-5.5-2.46-5.5-5.5l0,0c0-3.04,2.46-5.5,5.5-5.5l0,0
		C157.04,147.5,159.5,149.96,159.5,153L159.5,153z"/>
	<path class="st1" d="M96.25,178.12c0,0-2.25,25.73-31.25,25.73V215h87v-11.16c-29,0-30.88-25.73-30.88-25.73"/>
</g>
<g>
	<g>
		<path class="st8" d="M58.43,109.69l-4.77,14.44h-6.13l15.6-45.91h7.15l15.67,45.91h-6.33l-4.9-14.44H58.43z M73.48,105.06
			l-4.5-13.21c-1.02-3-1.7-5.72-2.38-8.38h-0.14c-0.68,2.72-1.43,5.52-2.32,8.31l-4.5,13.28H73.48z"/>
	</g>
	<g>
		<path class="st8" d="M54.86,150.29c2.59-0.54,6.68-0.95,10.83-0.95c5.93,0,9.74,1.02,12.6,3.34c2.38,1.77,3.81,4.5,3.81,8.11
			c0,4.43-2.93,8.31-7.77,10.08V171c4.36,1.09,9.47,4.7,9.47,11.51c0,3.95-1.57,6.95-3.88,9.2c-3.2,2.93-8.38,4.29-15.87,4.29
			c-4.09,0-7.22-0.27-9.2-0.54V150.29z M60.78,169.09h5.38c6.27,0,9.95-3.27,9.95-7.7c0-5.38-4.09-7.49-10.08-7.49
			c-2.72,0-4.29,0.2-5.25,0.41V169.09z M60.78,191.1c1.16,0.21,2.86,0.27,4.97,0.27c6.13,0,11.78-2.25,11.78-8.92
			c0-6.27-5.38-8.85-11.85-8.85h-4.9V191.1z"/>
	</g>
	<line class="st9" x1="94.52" y1="90" x2="137.52" y2="90"/>
	<line class="st9" x1="102.52" y1="106" x2="137.52" y2="106"/>
	<line class="st9" x1="115.52" y1="121" x2="137.52" y2="121"/>
	<line class="st9" x1="102.52" y1="160" x2="126.52" y2="160"/>
	<line class="st9" x1="102.52" y1="176" x2="119.52" y2="176"/>
	<line class="st9" x1="102.52" y1="191" x2="125.52" y2="191"/>
	<polyline class="st10" points="136.71,162.5 175.3,73.13 196.4,82.25 157.81,171.61 	"/>
	
		<rect x="179.35" y="56.3" transform="matrix(0.3965 -0.918 0.918 0.3965 52.5025 215.4553)" class="st9" width="21.55" height="22.99"/>
	<polygon class="st11" points="136.77,162.91 157.77,171.98 137.48,190.11 	"/>
	<polyline class="st9" points="179.63,121.7 196.97,81.54 209.98,87.16 192.64,127.32 	"/>
	<polyline class="st9" points="151.02,192.5 151.02,215 33.02,215 33.02,61 150.02,61 150.02,92.5 	"/>
	<polyline class="st9" points="19.52,189 5.02,189 5.02,27 122.02,27 122.02,47.5 	"/>
</g>
</svg>
