<?xml version="1.0" encoding="utf-8"?>
<!-- Generator: Adobe Illustrator 23.0.1, SVG Export Plug-In . SVG Version: 6.00 Build 0)  -->
<svg version="1.1" id="Layer_1" xmlns="http://www.w3.org/2000/svg" xmlns:xlink="http://www.w3.org/1999/xlink" x="0px" y="0px"
	 viewBox="0 0 215 220" style="enable-background:new 0 0 215 220;" xml:space="preserve">
<style type="text/css">
	.st0{display:none;}
	.st1{display:inline;fill:none;stroke:#000000;stroke-width:7;stroke-linecap:round;stroke-linejoin:round;stroke-miterlimit:10;}
	
		.st2{display:inline;fill:#49AD68;stroke:#000000;stroke-width:7;stroke-linecap:round;stroke-linejoin:round;stroke-miterlimit:10;}
	.st3{display:inline;fill:none;stroke:#000000;stroke-width:7;stroke-miterlimit:10;}
	.st4{display:inline;fill:none;stroke:#000000;stroke-width:6;stroke-linecap:round;stroke-linejoin:round;stroke-miterlimit:10;}
	
		.st5{display:inline;fill:#FFFFFF;stroke:#000000;stroke-width:7;stroke-linecap:round;stroke-linejoin:round;stroke-miterlimit:10;}
	.st6{display:inline;fill:none;stroke:#000000;stroke-width:12;stroke-linecap:round;stroke-linejoin:round;stroke-miterlimit:10;}
	.st7{display:inline;}
	.st8{stroke:#000000;stroke-width:2;stroke-linecap:round;stroke-linejoin:round;stroke-miterlimit:10;}
	.st9{display:inline;fill:none;stroke:#000000;stroke-width:5;stroke-linecap:round;stroke-linejoin:round;stroke-miterlimit:10;}
	.st10{fill:#49AD68;}
	.st11{fill:none;stroke:#000000;stroke-width:7;stroke-linecap:round;stroke-linejoin:round;stroke-miterlimit:10;}
	.st12{fill:none;stroke:#000000;stroke-width:6;stroke-linecap:round;stroke-linejoin:round;stroke-miterlimit:10;}
</style>
<g class="st0">
	<polyline class="st1" points="58.75,96.75 58.75,215.25 155.75,215.25 155.75,96.75 	"/>
	<polyline class="st1" points="41.75,95.75 107,26.25 172.08,95.58 	"/>
	<circle class="st1" cx="107" cy="96" r="23.25"/>
	<rect x="82.75" y="145.25" class="st1" width="47" height="70"/>
	<polyline class="st2" points="142.25,14.25 183.75,14.25 183.75,43.25 142.25,43.25 	"/>
	<polyline class="st1" points="156.25,112.25 184.19,112.25 204.75,139.25 156.25,139.25 	"/>
	<polyline class="st1" points="156.25,215.25 193.75,215.25 193.75,139.75 	"/>
	<polyline class="st1" points="58.25,112.25 30.77,112.25 10.25,139.25 58.25,139.25 	"/>
	<polyline class="st1" points="59.25,215.25 20.75,215.25 20.75,139.75 	"/>
	<line class="st3" x1="105.75" y1="144.75" x2="105.75" y2="214.75"/>
	<polyline class="st4" points="106.25,84.75 106.25,96.75 117.25,96.75 	"/>
	<line class="st1" x1="141.75" y1="62.75" x2="141.75" y2="6.75"/>
</g>
<g class="st0">
	<polyline class="st1" points="22,126.5 22,40 193,40 193,126.5 	"/>
	<rect x="22" y="140" class="st1" width="171" height="26"/>
	<rect x="54" y="70" class="st2" width="102" height="38"/>
	<polygon class="st5" points="150.73,123.85 172.16,102.42 142.75,94.44 	"/>
	<line class="st6" x1="163.22" y1="115.26" x2="173.6" y2="124.85"/>
	<path class="st7" d="M180.5,153c0,3.04-2.46,5.5-5.5,5.5l0,0c-3.04,0-5.5-2.46-5.5-5.5l0,0c0-3.04,2.46-5.5,5.5-5.5l0,0
		C178.04,147.5,180.5,149.96,180.5,153L180.5,153z"/>
	<path class="st7" d="M159.5,153c0,3.04-2.46,5.5-5.5,5.5l0,0c-3.04,0-5.5-2.46-5.5-5.5l0,0c0-3.04,2.46-5.5,5.5-5.5l0,0
		C157.04,147.5,159.5,149.96,159.5,153L159.5,153z"/>
	<path class="st1" d="M96.25,178.12c0,0-2.25,25.73-31.25,25.73V215h87v-11.16c-29,0-30.88-25.73-30.88-25.73"/>
</g>
<g class="st0">
	<g class="st7">
		<path class="st8" d="M58.43,109.69l-4.77,14.44h-6.13l15.6-45.91h7.15l15.67,45.91h-6.33l-4.9-14.44H58.43z M73.48,105.06
			l-4.5-13.21c-1.02-3-1.7-5.72-2.38-8.38h-0.14c-0.68,2.72-1.43,5.52-2.32,8.31l-4.5,13.28H73.48z"/>
	</g>
	<g class="st7">
		<path class="st8" d="M54.86,150.29c2.59-0.54,6.68-0.95,10.83-0.95c5.93,0,9.74,1.02,12.6,3.34c2.38,1.77,3.81,4.5,3.81,8.11
			c0,4.43-2.93,8.31-7.77,10.08V171c4.36,1.09,9.47,4.7,9.47,11.51c0,3.95-1.57,6.95-3.88,9.2c-3.2,2.93-8.38,4.29-15.87,4.29
			c-4.09,0-7.22-0.27-9.2-0.54V150.29z M60.78,169.09h5.38c6.27,0,9.95-3.27,9.95-7.7c0-5.38-4.09-7.49-10.08-7.49
			c-2.72,0-4.29,0.2-5.25,0.41V169.09z M60.78,191.1c1.16,0.21,2.86,0.27,4.97,0.27c6.13,0,11.78-2.25,11.78-8.92
			c0-6.27-5.38-8.85-11.85-8.85h-4.9V191.1z"/>
	</g>
	<line class="st1" x1="94.52" y1="90" x2="137.52" y2="90"/>
	<line class="st1" x1="102.52" y1="106" x2="137.52" y2="106"/>
	<line class="st1" x1="115.52" y1="121" x2="137.52" y2="121"/>
	<line class="st1" x1="102.52" y1="160" x2="126.52" y2="160"/>
	<line class="st1" x1="102.52" y1="176" x2="119.52" y2="176"/>
	<line class="st1" x1="102.52" y1="191" x2="125.52" y2="191"/>
	<polyline class="st2" points="136.71,162.5 175.3,73.13 196.4,82.25 157.81,171.61 	"/>
	
		<rect x="179.35" y="56.3" transform="matrix(0.3965 -0.918 0.918 0.3965 52.5025 215.4553)" class="st1" width="21.55" height="22.99"/>
	<polygon class="st5" points="136.77,162.91 157.77,171.98 137.48,190.11 	"/>
	<polyline class="st1" points="179.63,121.7 196.97,81.54 209.98,87.16 192.64,127.32 	"/>
	<polyline class="st1" points="151.02,192.5 151.02,215 33.02,215 33.02,61 150.02,61 150.02,92.5 	"/>
	<polyline class="st1" points="19.52,189 5.02,189 5.02,27 122.02,27 122.02,47.5 	"/>
</g>
<g class="st0">
	<path class="st7" d="M194.45,175c0.11-0.37,0.46-0.63,0.86-0.63h2.45c3.83,0,6.95-3.12,6.95-6.95v-4.48c0-3.83-3.12-6.95-6.95-6.95
		h-2.62c-0.4,0-0.75-0.25-0.86-0.62c-0.69-2.26-1.61-4.47-2.75-6.55c-0.19-0.34-0.12-0.78,0.16-1.06l1.88-1.88
		c1.31-1.31,2.04-3.06,2.04-4.92c0-1.86-0.72-3.6-2.04-4.91l-3.17-3.17c-1.31-1.31-3.06-2.04-4.92-2.04c-1.86,0-3.6,0.72-4.92,2.04
		l-1.88,1.88c-0.28,0.28-0.72,0.35-1.06,0.16c-2.08-1.14-4.29-2.06-6.55-2.75c-0.36-0.11-0.62-0.46-0.62-0.86v-2.62
		c0-3.83-3.12-6.95-6.95-6.95h-4.48c-3.83,0-6.95,3.12-6.95,6.95v2.45c0,0.4-0.26,0.76-0.63,0.86c-2.34,0.66-4.61,1.58-6.76,2.72
		c-0.34,0.18-0.76,0.11-1.04-0.17l-1.67-1.67c-1.31-1.31-3.06-2.04-4.92-2.04c-1.86,0-3.6,0.72-4.92,2.04l-3.17,3.17
		c-1.31,1.31-2.04,3.06-2.04,4.92c0,1.86,0.72,3.6,2.04,4.92l1.5,1.5c0.29,0.29,0.35,0.72,0.16,1.06c-1.23,2.19-2.23,4.52-2.95,6.92
		c-0.11,0.37-0.47,0.62-0.88,0.62h-2.02c-3.83,0-6.95,3.12-6.95,6.95v4.48c0,3.83,3.12,6.95,6.95,6.95h1.86
		c0.41,0,0.76,0.26,0.87,0.62c0.71,2.48,1.69,4.88,2.93,7.15c0.18,0.33,0.11,0.76-0.17,1.04l-1.29,1.29
		c-1.31,1.31-2.04,3.06-2.04,4.92c0,1.86,0.72,3.6,2.04,4.92l3.17,3.17c1.31,1.31,3.06,2.04,4.92,2.04c1.86,0,3.6-0.72,4.92-2.04
		l1.29-1.29c0.28-0.28,0.71-0.35,1.04-0.17c2.26,1.24,4.67,2.22,7.15,2.93c0.37,0.1,0.62,0.46,0.62,0.87v1.86
		c0,3.83,3.12,6.95,6.95,6.95h4.48c3.83,0,6.95-3.12,6.95-6.95v-2.01c0-0.41,0.26-0.77,0.62-0.88c2.4-0.73,4.73-1.72,6.92-2.96
		c0.34-0.19,0.78-0.13,1.07,0.16l1.5,1.5c1.31,1.31,3.06,2.04,4.92,2.04c1.86,0,3.6-0.72,4.92-2.04l3.17-3.17
		c1.31-1.31,2.04-3.06,2.04-4.92c0-1.86-0.72-3.6-2.04-4.92l-1.67-1.67c-0.28-0.28-0.35-0.71-0.17-1.04
		C192.87,179.61,193.79,177.33,194.45,175z M188.64,173.34c-0.55,1.93-1.3,3.81-2.25,5.58c-1.44,2.7-0.94,5.98,1.24,8.15l1.67,1.67
		c0.36,0.36,0.36,0.93,0,1.29l-3.17,3.17c-0.35,0.35-0.93,0.35-1.28,0l-1.5-1.5c-2.19-2.19-5.61-2.67-8.3-1.15
		c-1.81,1.02-3.73,1.84-5.71,2.44c-2.89,0.88-4.91,3.62-4.91,6.66v2.02c0,0.5-0.41,0.91-0.91,0.91h-4.48c-0.5,0-0.91-0.41-0.91-0.91
		v-1.86c0-3.1-2.06-5.84-5.02-6.68c-2.04-0.58-4.03-1.39-5.9-2.41c-1.03-0.56-2.16-0.83-3.28-0.83c-1.8,0-3.6,0.7-4.93,2.03
		l-1.29,1.29c-0.22,0.22-0.47,0.27-0.64,0.27s-0.42-0.05-0.64-0.27l-3.17-3.17c-0.35-0.35-0.35-0.93,0-1.28l1.29-1.29
		c2.17-2.17,2.66-5.55,1.2-8.22c-1.02-1.87-1.83-3.85-2.41-5.9c-0.84-2.95-3.59-5.02-6.68-5.02h-1.86c-0.5,0-0.91-0.41-0.91-0.91
		v-4.48c0-0.5,0.41-0.91,0.91-0.91h2.02c3.05,0,5.79-2.02,6.66-4.91c0.6-1.98,1.42-3.9,2.44-5.71c1.51-2.69,1.04-6.11-1.15-8.3
		l-1.5-1.5c-0.35-0.35-0.35-0.93,0-1.28l3.17-3.17c0.35-0.35,0.93-0.35,1.29,0l1.67,1.67c2.17,2.17,5.45,2.67,8.15,1.24
		c1.77-0.94,3.65-1.7,5.58-2.25c2.96-0.84,5.02-3.59,5.02-6.68v-2.45c0-0.5,0.41-0.91,0.91-0.91h4.48c0.5,0,0.91,0.41,0.91,0.91
		v2.62c0,3.08,1.97,5.75,4.91,6.64c1.87,0.57,3.69,1.33,5.41,2.27c2.68,1.46,6.07,0.97,8.23-1.19l1.88-1.88
		c0.35-0.35,0.93-0.35,1.28,0l3.17,3.17c0.35,0.35,0.35,0.93,0,1.29l-1.88,1.88c-2.17,2.17-2.66,5.55-1.19,8.23
		c0.94,1.72,1.7,3.54,2.27,5.41c0.89,2.93,3.56,4.91,6.64,4.91h2.62c0.5,0,0.91,0.41,0.91,0.91v4.48c0,0.5-0.41,0.91-0.91,0.91
		h-2.45C192.23,168.32,189.48,170.39,188.64,173.34z"/>
	<path class="st7" d="M161.28,143.13c-12.15,0-22.04,9.89-22.04,22.04c0,12.15,9.89,22.04,22.04,22.04s22.04-9.89,22.04-22.04
		C183.32,153.02,173.43,143.13,161.28,143.13z M161.28,181.17c-8.82,0-16-7.18-16-16c0-8.82,7.18-16,16-16c8.82,0,16,7.18,16,16
		C177.28,173.99,170.1,181.17,161.28,181.17z"/>
	<g class="st7">
		<path class="st8" d="M129.29,86.19c0,11.56-3.42,22.9-9.88,32.81c-9.56,14.65-15.94,26-17.41,41.63c-0.01,0.1-0.03-0.14-0.05,0.86
			h3h2.74c1.4-15,7.4-24.98,16.45-38.86c7.06-10.82,10.77-23.51,10.77-36.16c0-13.23-4.12-26.01-11.86-36.69
			c-0.91-1.25-2.65-1.6-3.9-0.7c-1.25,0.91-1.53,2.62-0.62,3.87C125.57,62.69,129.29,74.15,129.29,86.19z"/>
		<path class="st8" d="M43.21,161.5c-0.01-1-0.03-0.74-0.04-0.82c-1.48-15.63-7.85-26.71-17.41-41.36
			c-6.46-9.91-9.88-21.41-9.88-32.97c0-31.27,25.44-56.79,56.71-56.79c14.43,0,28.18,5.38,38.72,15.23c1.13,1.05,2.9,0.97,3.95-0.15
			c1.05-1.13,0.99-2.91-0.13-3.96C103.54,29.86,88.44,23.9,72.58,23.9c-34.35,0-62.3,27.94-62.3,62.3
			c0,12.64,3.73,25.62,10.79,36.45c9.05,13.87,15.27,23.86,16.67,38.86H43.21z"/>
	</g>
	<line class="st9" x1="143.78" y1="93.5" x2="143.78" y2="136.5"/>
	<line class="st9" x1="160.78" y1="52.5" x2="160.78" y2="123.5"/>
	<line class="st9" x1="178.78" y1="74.5" x2="178.78" y2="135.5"/>
	<rect x="39.78" y="170" class="st2" width="66" height="31"/>
	<line class="st1" x1="58.78" y1="157.5" x2="58.78" y2="114.5"/>
	<line class="st1" x1="84.78" y1="157.5" x2="84.78" y2="114.5"/>
	<line class="st1" x1="40.28" y1="215" x2="105.28" y2="215"/>
</g>
<g>
	<polygon class="st10" points="112.3,110.54 135.71,115.28 151.9,109.5 131.1,152.28 	"/>
	<path class="st11" d="M172.6,70.43c0,24.91-18.53,45.11-41.38,45.11s-41.38-20.2-41.38-45.11c0-24.91,18.53-45.11,41.38-45.11
		S172.6,45.52,172.6,70.43z"/>
	<path class="st11" d="M95.61,118.73c4.93-2.35,9.86-4.7,14.79-7.05l20.69,40.6l20.42-40.6l33.36,22.18l5.87,67.94"/>
	<path class="st11" d="M73.26,74.5c0,16.75-12.46,30.33-27.82,30.33c-15.37,0-27.82-13.58-27.82-30.33
		c0-16.75,12.45-30.33,27.82-30.33C60.81,44.17,73.26,57.75,73.26,74.5z"/>
	<polyline class="st12" points="44.54,59.83 44.54,75.48 57.7,75.48 	"/>
	<polyline class="st11" points="199.3,215 43.17,215 15.7,139 103.34,139 133.44,214.86 	"/>
</g>
</svg>
