<?xml version="1.0" encoding="utf-8"?>
<!-- Generator: Adobe Illustrator 23.0.1, SVG Export Plug-In . SVG Version: 6.00 Build 0)  -->
<svg version="1.1" id="Layer_1" xmlns="http://www.w3.org/2000/svg" xmlns:xlink="http://www.w3.org/1999/xlink" x="0px" y="0px"
	 viewBox="0 0 205 220" style="enable-background:new 0 0 205 220;" xml:space="preserve">
<style type="text/css">
	.st0{display:none;}
	.st1{display:inline;fill:none;stroke:#000000;stroke-width:7;stroke-linecap:round;stroke-linejoin:round;stroke-miterlimit:10;}
	
		.st2{display:inline;fill:#49AD68;stroke:#000000;stroke-width:7;stroke-linecap:round;stroke-linejoin:round;stroke-miterlimit:10;}
	.st3{display:inline;fill:none;stroke:#000000;stroke-width:7;stroke-miterlimit:10;}
	.st4{display:inline;fill:none;stroke:#000000;stroke-width:6;stroke-linecap:round;stroke-linejoin:round;stroke-miterlimit:10;}
	.st5{fill:none;stroke:#000000;stroke-width:7;stroke-linecap:round;stroke-linejoin:round;stroke-miterlimit:10;}
	.st6{fill:#49AD68;stroke:#000000;stroke-width:7;stroke-linecap:round;stroke-linejoin:round;stroke-miterlimit:10;}
	.st7{fill:#FFFFFF;stroke:#000000;stroke-width:7;stroke-linecap:round;stroke-linejoin:round;stroke-miterlimit:10;}
	.st8{fill:none;stroke:#000000;stroke-width:12;stroke-linecap:round;stroke-linejoin:round;stroke-miterlimit:10;}
</style>
<g class="st0">
	<polyline class="st1" points="53.75,96.75 53.75,215.25 150.75,215.25 150.75,96.75 	"/>
	<polyline class="st1" points="36.75,95.75 102,26.25 167.08,95.58 	"/>
	<circle class="st1" cx="102" cy="96" r="23.25"/>
	<rect x="77.75" y="145.25" class="st1" width="47" height="70"/>
	<polyline class="st2" points="137.25,14.25 178.75,14.25 178.75,43.25 137.25,43.25 	"/>
	<polyline class="st1" points="151.25,112.25 179.19,112.25 199.75,139.25 151.25,139.25 	"/>
	<polyline class="st1" points="151.25,215.25 188.75,215.25 188.75,139.75 	"/>
	<polyline class="st1" points="53.25,112.25 25.77,112.25 5.25,139.25 53.25,139.25 	"/>
	<polyline class="st1" points="54.25,215.25 15.75,215.25 15.75,139.75 	"/>
	<line class="st3" x1="100.75" y1="144.75" x2="100.75" y2="214.75"/>
	<polyline class="st4" points="101.25,84.75 101.25,96.75 112.25,96.75 	"/>
	<line class="st1" x1="136.75" y1="62.75" x2="136.75" y2="6.75"/>
</g>
<g>
	<polyline class="st5" points="17,126.5 17,40 188,40 188,126.5 	"/>
	<rect x="17" y="140" class="st5" width="171" height="26"/>
	<rect x="49" y="70" class="st6" width="102" height="38"/>
	<polygon class="st7" points="145.73,123.85 167.16,102.42 137.75,94.44 	"/>
	<line class="st8" x1="158.22" y1="115.26" x2="168.6" y2="124.85"/>
	<path d="M175.5,153c0,3.04-2.46,5.5-5.5,5.5l0,0c-3.04,0-5.5-2.46-5.5-5.5l0,0c0-3.04,2.46-5.5,5.5-5.5l0,0
		C173.04,147.5,175.5,149.96,175.5,153L175.5,153z"/>
	<path d="M154.5,153c0,3.04-2.46,5.5-5.5,5.5l0,0c-3.04,0-5.5-2.46-5.5-5.5l0,0c0-3.04,2.46-5.5,5.5-5.5l0,0
		C152.04,147.5,154.5,149.96,154.5,153L154.5,153z"/>
	<path class="st5" d="M91.25,178.12c0,0-2.25,25.73-31.25,25.73V215h87v-11.16c-29,0-30.88-25.73-30.88-25.73"/>
</g>
<g>
</g>
<g>
</g>
<g>
</g>
<g>
</g>
<g>
</g>
<g>
</g>
<g>
</g>
<g>
</g>
<g>
</g>
<g>
</g>
<g>
</g>
</svg>
